<svg width="98" height="96" xmlns="http://www.w3.org/2000/svg" viewBox="-0.05 -0.05 12.81 9.736" fill="url(#SVG-grad)">
    <defs>
        <linearGradient id="SVG-grad" x1="0%" y1="100%" x2="100%" y2="0%">
            <stop offset="0%" style="stop-color:#3901ac" />
            <stop offset="100%" style="stop-color:#8339e8" />
        </linearGradient>
    </defs>
    <path d="M10.77.807A10.515 10.515 90 008.147 0a7.206 7.206 90 00-.336.683A9.768 9.768 90 004.9.683 7.237 7.237 90 004.564 0 10.589 10.589 90 001.939.809C.279 3.265-.171 5.66.054 8.021h0A10.573 10.573 90 003.271 9.636 7.77 7.77 90 003.96 8.525a6.842 6.842 90 01-1.085-.518c.091-.066.18-.134.266-.2a7.557 7.557 90 006.432 0c.087.071.176.139.266.2a6.868 6.868 90 01-1.087.519 7.7 7.7 90 00.689 1.11A10.525 10.525 90 0012.66 8.022h0C12.924 5.284 12.209 2.911 10.77.807ZM4.245 6.569C3.618 6.569 3.1 6 3.1 5.3s.5-1.274 1.143-1.274S5.4 4.6 5.389 5.3 4.884 6.569 4.245 6.569Zm4.224 0C7.841 6.569 7.325 6 7.325 5.3s.5-1.274 1.144-1.274S9.623 4.6 9.612 5.3 9.108 6.569 8.469 6.569Z"/>
</svg>