<svg width="98" height="96" xmlns="http://www.w3.org/2000/svg" viewBox="-0.05 16.1243 110.7 78.39" fill="url(#SVG-grad)">
    <defs>
        <linearGradient id="SVG-grad" x1="0%" y1="100%" x2="100%" y2="0%">
            <stop offset="0%" style="stop-color:#3901ac" />
            <stop offset="100%" style="stop-color:#8339e8" />
        </linearGradient>
    </defs>
    <path d="M87.6617 16.1743H22.9786C10.2878 16.1743 0 26.4622 0 39.1529v32.3347c0 12.6907 10.2878 22.9786 22.9786 22.9786h64.6831c12.6907 0 22.9786-10.2878 22.9786-22.9786V39.1529C110.6402 26.4622 100.3524 16.1743 87.6617 16.1743zM72.1214 56.8934l-30.2544 14.4295c-.8062.3845-1.7374-.2033-1.7374-1.0963V40.4657c0-.9058.9557-1.4928 1.7635-1.0834l30.2544 15.3314C73.0471 55.1695 73.0315 56.4595 72.1214 56.8934z"/>
</svg>