<svg width="1024" height="1024" viewBox="0 0 1024 1024" fill="none" xmlns="http://www.w3.org/2000/svg">
<rect width="1024" height="1024" fill="#1E1E1E"/>
<path d="M1128 512L-152 512" stroke="#291E29" stroke-width="400"/>
<path d="M100 316.5V542" stroke="#1A1B17" stroke-width="200"/>
<path d="M35 744V1024" stroke="#161718" stroke-width="250"/>
<path d="M780 835H582" stroke="#675976" stroke-width="60"/>
<path d="M452 980L219.5 980" stroke="#BEC401" stroke-width="8"/>
<path d="M582 782H772" stroke="#808E9F" stroke-width="67"/>
<path d="M462.5 1008.5H200.5" stroke="#384459" stroke-width="50"/>
<path d="M192 78H548.5" stroke="#1F1E29" stroke-width="160"/>
<path d="M575 779.5H772" stroke="#2A3F55" stroke-width="20"/>
<path d="M848.5 752.5V862.5" stroke="#2F2F32" stroke-width="155"/>
<path d="M699.5 964H513.5" stroke="#2C2235" stroke-width="155"/>
<path d="M587.5 808H402" stroke="#2C2235" stroke-width="155"/>
<path d="M16 0V278" stroke="#249EC7" stroke-width="100"/>
<path d="M105.5 356H16" stroke="#675976" stroke-width="60"/>
<path d="M0 300H104" stroke="#9C9F95" stroke-width="62"/>
<path d="M154 386V0" stroke="#B5B7BA" stroke-width="100"/>
<path d="M586 220.5V0" stroke="#B5B7BA" stroke-width="100"/>
<path d="M567.5 206.59L204 206.59" stroke="#B5B7BA" stroke-width="100"/>
<path d="M458 770H587.5" stroke="#675976" stroke-width="90"/>
<path d="M451.5 965H221" stroke="#A0B0B1" stroke-width="30"/>
<path d="M122 956V1012" stroke="#A0B0B1" stroke-width="155"/>
<path d="M425.5 1015H-12" stroke="#A0B0B1" stroke-width="30"/>
<path d="M452 1015H215" stroke="#7699A9" stroke-width="30"/>
<path d="M339 747V955.5" stroke="#161718" stroke-width="250"/>
<path d="M75 0V265.5M647 0V265.5" stroke="#1E1B24" stroke-width="80"/>
<path d="M35 244H686.5" stroke="#1E1B24" stroke-width="50"/>
<path d="M716.5 0V268.5" stroke="#A24A20" stroke-width="60"/>
<path d="M795 0V353.5" stroke="#249EC7" stroke-width="100"/>
<path d="M118.5 0V219" stroke="#BEC401" stroke-width="8"/>
<path d="M935 0V353.5" stroke="#B7A8B5" stroke-width="180"/>
<path d="M982 116.5V354" stroke="#C7CFC5" stroke-width="84"/>
<path d="M1024 112.5H930" stroke="#CBDBDB" stroke-width="10"/>
<path d="M935 354V117.5" stroke="#CBDBDB" stroke-width="10"/>
<path d="M204 299.5H890.5" stroke="#C1C6C0" stroke-width="62"/>
<path d="M454.5 892.5H222.5" stroke="#596257" stroke-width="64"/>
<path d="M930 63H1024" stroke="#675976" stroke-width="90"/>
<path d="M1002 744V1030.5" stroke="#8E8B9A" stroke-width="155"/>
<path d="M684 986H947.5" stroke="#89664F" stroke-width="155"/>
<path d="M707.5 723H209" stroke="#BAC3DF" stroke-width="64"/>
<path d="M1027.5 895.5H450.5" stroke="#B8D4CB" stroke-width="70"/>
<path d="M154 723H-11.5" stroke="#B8D4CB" stroke-width="70"/>
<path d="M490 901L490 1025.5" stroke="#B8D4CB" stroke-width="80"/>
<path d="M182.5 1025V442" stroke="#7E3226" stroke-width="80"/>
<path d="M1027 723H707.5" stroke="#D9E2ED" stroke-width="64"/>
</svg>
