<svg
	xmlns="http://www.w3.org/2000/svg"
	viewBox="0.4993 48.119 511 515.8"
	fill="currentColor"
	stroke="none"
>
	<path
		d="M510.003 279.642c-2.998-21.097-10.305-41.104-21.724-59.459-9.96-16.019-22.739-30.266-37.992-42.375l.041-.038L290.133 54.731c-.133-.116-.27-.224-.361-.287-5.327-4.08-12.538-6.325-20.298-6.325-7.769 0-15.262 2.25-21.088 6.337-6.263 4.375-9.843 10.18-10.093 16.36-.229 5.764 2.521 11.311 7.764 15.636 10.31 8.134 20.598 16.447 30.898 24.768 9.997 8.08 20.298 16.401 30.549 24.502l-196.213-.133c-22.439 0-37.718 10.537-40.861 28.178-1.381 7.727 1.056 16.223 6.504 22.73 5.78 6.899 14.172 10.704 23.629 10.704l14.958.009c20.664 0 41.419-.05 62.146-.1l19.766-.046L19.354 328.812l-.707.516C8.7 336.954 2.188 347.642.783 358.653c-1.065 8.342.881 15.965 5.63 22.053 5.66 7.257 14.497 11.249 24.885 11.249 10.205 0 20.618-3.867 29.334-10.908l96.166-78.7c-.411 3.843-.91 9.481-.853 13.573.108 6.479 2.188 19.479 5.481 30.033 6.804 21.691 18.265 41.536 34.063 58.964 16.438 18.131 36.458 32.508 59.5 42.721 24.361 10.774 50.547 16.243 77.836 16.243h.253c27.376-.066 53.646-5.622 78.085-16.518 23.08-10.334 43.091-24.769 59.467-42.899 15.778-17.516 27.222-37.394 34.013-59.067 3.356-10.721 5.519-21.82 6.417-33.003.839-10.829.478-21.849-1.057-32.752zM334.821 383.601c-60.142 0-108.912-43.627-108.912-97.447 0-53.815 48.771-97.442 108.912-97.442s108.907 43.627 108.907 97.442c.001 53.82-48.766 97.447-108.907 97.447zm62.806-106.01c.886 16.064-5.53 30.978-16.796 42.019-11.461 11.248-27.816 18.313-46.102 18.313-18.281 0-34.637-7.065-46.102-18.313-11.262-11.041-17.665-25.954-16.784-42.006.865-15.603 8.476-29.376 19.94-39.128 11.273-9.589 26.411-15.44 42.945-15.44 16.538 0 31.671 5.852 42.945 15.44 11.467 9.752 19.081 23.516 19.954 39.115z"
	/>
</svg>
