<svg
	xmlns="http://www.w3.org/2000/svg"
	viewBox="0 0 16 16"
	fill="currentColor"
	stroke="none"
>
	<path
		d="M8 1c3.8675 0 7 3.1325 7 7a7.0114 7.0114 90 01-4.7687 6.6412c-.35.07-.4813-.1488-.4813-.3325 0-.2363.0088-.9887.0088-1.925 0-.6563-.2188-1.0762-.4725-1.295 1.5575-.175 3.1938-.77 3.1938-3.4563 0-.77-.2712-1.3913-.7175-1.8812.07-.175.315-.8925-.07-1.855 0 0-.5863-.1925-1.925.7175-.56-.1575-1.155-.2363-1.75-.2363-.595 0-1.19.0788-1.75.2363-1.3388-.9012-1.925-.7175-1.925-.7175-.385.9625-.14 1.68-.07 1.855-.4463.49-.7175 1.12-.7175 1.8812 0 2.6775 1.6275 3.2813 3.185 3.4563-.2013.175-.385.4813-.4463.9363-.4025.1837-1.4088.4813-2.0388-.5775-.1313-.21-.525-.7262-1.0762-.7175-.5863.0088-.2363.3325.0088.4637.2975.1663.6387.7875.7175.9887.14.3937.595 1.1462 2.3537.8225 0 .5863.0088 1.1375.0088 1.3037 0 .1837-.1313.3937-.4813.3325A6.9956 6.9956 90 011 8C1 4.1325 4.1325 1 8 1ZM8 16c5 0 8-4 8-8S13 0 8 0 0 4 0 8s3 8 8 8"
	/>
</svg>
