<svg xmlns="http://www.w3.org/2000/svg" viewBox="0 0 1621.21 349.99"><defs><style>.cls-1{fill:#fff;}</style></defs><title>Sidequest Logo White</title><g id="Layer_2" data-name="Layer 2"><g id="Layer_1-2" data-name="Layer 1"><path class="cls-1" d="M513.66,169.77a231.44,231.44,0,0,0-26.29-7.63q-15.45-3.4-23-6.92t-7.53-10.73q0-7.23,6.52-11.64t20.17-4.41a73.07,73.07,0,0,1,26.38,5.07,14.25,14.25,0,0,0,18.23-8l4.35-10.68A77.78,77.78,0,0,0,510,105.56a107.94,107.94,0,0,0-26.28-3.21q-19.26,0-32.61,5.82t-20,15.75a39.14,39.14,0,0,0-6.62,22.17q0,14.06,7.32,22.47a42.71,42.71,0,0,0,17.56,12.25,228.77,228.77,0,0,0,26.28,7.62q10.44,2.4,16.56,4.41a29.66,29.66,0,0,1,10,5.32,10.46,10.46,0,0,1,3.91,8.33q0,6.82-6.62,10.93t-20.46,4.12a80.57,80.57,0,0,1-24.89-4l-10.7-3.47a14.35,14.35,0,0,0-17.49,7.75l-4.31,9.57q9.44,7.22,25,11.73a114.55,114.55,0,0,0,32.2,4.52q19.28,0,32.71-5.82t20.16-15.75a38.35,38.35,0,0,0,6.73-22q0-14-7.33-22.27A43.43,43.43,0,0,0,513.66,169.77Z"/><rect class="cls-1" x="563.53" y="104.76" width="32.51" height="140.45"/><path class="cls-1" d="M729.66,113.49q-17.56-8.73-40.43-8.73H625.42V245.21h63.81q22.88,0,40.43-8.73A65.39,65.39,0,0,0,757,211.9q9.72-15.84,9.73-36.91T757,138.07A65.39,65.39,0,0,0,729.66,113.49Zm-8.43,93.3q-12.54,11.73-33.61,11.74H657.93V131.44h29.69q21.07,0,33.61,11.74T733.77,175Q733.77,195,721.23,206.79Z"/><polygon class="cls-1" points="788.43 245.21 897.19 245.21 897.19 219.13 820.74 219.13 820.74 186.62 891.45 186.62 891.45 161.34 820.74 161.34 820.74 130.84 897.19 130.84 897.19 104.76 788.43 104.76 788.43 245.21"/><path class="cls-1" d="M1061.41,212.21a70.41,70.41,0,0,0,10-37.22,70.26,70.26,0,0,0-37.52-63.21q-17.45-9.42-39.32-9.43t-39.43,9.43a70,70,0,0,0-27.49,26A71,71,0,0,0,917.75,175a71,71,0,0,0,9.93,37.22,70,70,0,0,0,27.49,26q17.55,9.44,39.43,9.43t39.32-9.43c1.08-.58,2.12-1.21,3.16-1.84l11.28,11.28h35.74l-27.92-27.92A72.62,72.62,0,0,0,1061.41,212.21ZM1033.48,197l-7.16-7.17-10.58-10.55-17.86,17.89L1015.67,215a47,47,0,0,1-43.55-.74,41.07,41.07,0,0,1-15.75-16,50.29,50.29,0,0,1,0-46.55,41.07,41.07,0,0,1,15.75-16,47,47,0,0,1,45,0,41,41,0,0,1,15.75,16,50.29,50.29,0,0,1,.66,45.28Z"/><path class="cls-1" d="M1189.83,182.21q0,19.46-8,28.59t-23.27,9.13q-31.3,0-31.3-37.72V104.76h-32.51v78.65q0,30.9,16.75,47.56t46.85,16.65q30.11,0,46.86-16.65t16.75-47.56V104.76h-32.1Z"/><polygon class="cls-1" points="1245.4 245.21 1354.15 245.21 1354.15 219.13 1277.71 219.13 1277.71 186.62 1348.42 186.62 1348.42 161.34 1277.71 161.34 1277.71 130.84 1354.15 130.84 1354.15 104.76 1245.4 104.76 1245.4 245.21"/><path class="cls-1" d="M1465.78,169.77a230.82,230.82,0,0,0-26.29-7.63q-15.45-3.4-23-6.92T1409,144.49q0-7.23,6.53-11.64t20.16-4.41a73.07,73.07,0,0,1,26.38,5.07,14.26,14.26,0,0,0,18.24-8l4.34-10.68a77.71,77.71,0,0,0-22.47-9.23,108,108,0,0,0-26.29-3.21q-19.26,0-32.6,5.82t-20,15.75a39.14,39.14,0,0,0-6.62,22.17q0,14.06,7.32,22.47a42.77,42.77,0,0,0,17.56,12.25,228.41,228.41,0,0,0,26.29,7.62q10.42,2.4,16.55,4.41a29.66,29.66,0,0,1,10,5.32,10.46,10.46,0,0,1,3.91,8.33q0,6.82-6.62,10.93t-20.46,4.12a80.46,80.46,0,0,1-24.88-4l-10.71-3.47a14.33,14.33,0,0,0-17.48,7.75l-4.32,9.57q9.43,7.22,25,11.73a114.57,114.57,0,0,0,32.21,4.52q19.26,0,32.7-5.82t20.17-15.75a38.34,38.34,0,0,0,6.72-22q0-14-7.33-22.27A43.43,43.43,0,0,0,1465.78,169.77Z"/><polygon class="cls-1" points="1498.82 104.76 1498.82 131.25 1543.76 131.25 1543.76 245.21 1576.27 245.21 1576.27 131.25 1621.21 131.25 1621.21 104.76 1498.82 104.76"/><path class="cls-1" d="M389.25,149.2,303.12,0H130.82l40.85,70.69L184.14,92.3l-14.91,25.79H139.45L127,96.48,86.16,25.77,0,175l86.13,149.2L127,253.47l12.47-21.61h29.78l14.91,25.83-12.5,21.61L130.82,350h172.3l86.13-149.2H282.68L267.78,175l14.9-25.79ZM85.76,66.79l15.94,27.6L77.25,136.73H180l51.39-89h-48.9l-15.93-27.6H280.82L196.75,165.76H28.61Zm80.78,263,15.93-27.6h48.9l-51.39-89H77.25l24.45,42.34-15.94,27.6-57.15-99H196.75l22.13,38.33,61.94,107.31ZM297.64,264l24.43-42.34h31.87l-57.13,99-50.42-87.28L212.71,175l39.88-69.05,44.22-76.56,57.13,99H322.07L297.64,86l-51.39,89Z"/></g></g></svg>