<svg width="124" height="130" viewBox="0 0 124 130" fill="none" xmlns="http://www.w3.org/2000/svg">
<path d="M1.15134 7.15133L123.927 8.42149L2.42149 129.927L1.15134 7.15133Z" fill="#333333"/>
<path d="M20.5403 55.0173C21.1387 55.6158 21.5139 56.281 21.6658 57.013C21.8177 57.745 21.7349 58.5091 21.4172 59.3056C21.1042 60.0974 20.5518 60.8892 19.76 61.681C19.4101 62.0309 19.0441 62.3508 18.662 62.6408C18.2845 62.9263 17.8978 63.1795 17.5019 63.4004C17.106 63.6122 16.7032 63.7894 16.2935 63.9321L14.3047 61.9434C14.9953 61.6764 15.6835 61.3703 16.3694 61.025C17.0554 60.6797 17.6515 60.2539 18.1579 59.7475C18.5078 59.3976 18.7426 59.0708 18.8623 58.7669C18.9866 58.4585 19.0165 58.1754 18.952 57.9176C18.8876 57.6598 18.7518 57.4273 18.5446 57.2201C18.2914 56.9669 17.9899 56.8357 17.64 56.8265C17.2901 56.8173 16.8873 56.8841 16.4316 57.0268C15.9804 57.1649 15.4786 57.3306 14.9262 57.524C14.5809 57.6483 14.1919 57.7703 13.7592 57.89C13.3219 58.0051 12.8638 58.0718 12.385 58.0902C11.9063 58.1086 11.4229 58.035 10.9349 57.8692C10.447 57.6943 9.97278 57.3767 9.51243 56.9163C8.90936 56.3132 8.53187 55.6595 8.37995 54.9552C8.22803 54.2508 8.29479 53.5304 8.58021 52.7938C8.86563 52.048 9.35821 51.3253 10.0579 50.6255C10.5828 50.1007 11.1444 49.6634 11.7429 49.3135C12.3413 48.9545 13.0157 48.6299 13.7661 48.3399L14.7398 50.6946C14.0861 50.9708 13.5244 51.2424 13.0549 51.5094C12.5807 51.7718 12.1526 52.0941 11.7705 52.4762C11.5035 52.7432 11.3193 53.0148 11.218 53.291C11.1122 53.5626 11.0891 53.825 11.149 54.0782C11.2042 54.3268 11.3331 54.5524 11.5357 54.7549C11.7751 54.9943 12.0467 55.1278 12.3505 55.1554C12.6544 55.1739 13.0226 55.1186 13.4554 54.9897C13.8927 54.8562 14.4244 54.679 15.0505 54.458C15.8101 54.1864 16.5052 54.0023 17.1359 53.9056C17.7666 53.7997 18.3605 53.8273 18.9175 53.9884C19.4699 54.145 20.0108 54.4879 20.5403 55.0173ZM19.394 46.3304L27.1141 54.0506L25.008 56.1567L17.2878 48.4366L19.394 46.3304ZM15.3198 44.3555C15.6329 44.0425 15.9758 43.8468 16.3487 43.7685C16.717 43.6857 17.0991 43.8422 17.495 44.2381C17.8863 44.6294 18.0451 45.0138 17.9715 45.3913C17.8932 45.7642 17.6976 46.1072 17.3845 46.4202C17.0669 46.7378 16.7216 46.9358 16.3487 47.0141C15.9758 47.0831 15.5937 46.922 15.2024 46.5307C14.8065 46.1348 14.6477 45.755 14.726 45.3913C14.8042 45.0184 15.0022 44.6731 15.3198 44.3555ZM31.0433 47.0417C31.2735 46.8115 31.4737 46.5652 31.644 46.3028C31.819 46.0358 31.9801 45.7596 32.1274 45.4742L33.6949 47.0417C33.5706 47.3685 33.3727 47.7322 33.1011 48.1327C32.8387 48.5332 32.5095 48.9314 32.1136 49.3273C31.6532 49.7877 31.1653 50.1284 30.6497 50.3493C30.1341 50.5611 29.5862 50.5887 29.0062 50.4322C28.4262 50.2665 27.8047 49.8521 27.1418 49.1892L23.4198 45.4673L22.4116 46.4754L21.5208 45.5846L21.9766 43.7202L20.9546 41.4829L22.3011 40.1363L23.9446 41.7798L26.106 39.6184L27.6873 41.1998L25.5259 43.3611L29.2479 47.0831C29.5425 47.3777 29.8464 47.5158 30.1594 47.4974C30.4724 47.4698 30.7671 47.3179 31.0433 47.0417ZM30.7947 34.6397C31.5082 33.9261 32.2609 33.4497 33.0527 33.2103C33.8399 32.9663 34.6341 32.964 35.4351 33.2034C36.2361 33.4428 37.0118 33.9376 37.7622 34.688L38.7842 35.71L33.8054 40.6888C34.4223 41.2596 35.0668 41.5496 35.7389 41.5588C36.411 41.5588 37.044 41.2619 37.6379 40.668C38.1305 40.1755 38.531 39.6737 38.8394 39.1627C39.1478 38.6517 39.4172 38.0785 39.6473 37.4433L41.277 39.0729C41.0836 39.6438 40.8212 40.1824 40.4898 40.6888C40.1629 41.1905 39.7026 41.7384 39.1087 42.3322C38.3353 43.1056 37.5067 43.6489 36.6228 43.9619C35.7435 44.2703 34.8412 44.3026 33.9159 44.0586C32.9952 43.81 32.0906 43.2414 31.2021 42.3529C30.2998 41.4507 29.7013 40.5484 29.4067 39.6461C29.1121 38.7346 29.0891 37.8553 29.3377 37.0082C29.5816 36.1566 30.0673 35.367 30.7947 34.6397ZM32.307 36.1243C31.8972 36.534 31.6878 37.0059 31.6786 37.5399C31.674 38.0693 31.9318 38.6356 32.452 39.2386L35.4075 36.2832C35.0898 35.9747 34.7537 35.7537 34.3993 35.6202C34.0494 35.4821 33.6949 35.4499 33.3358 35.5236C32.9814 35.5926 32.6384 35.7929 32.307 36.1243ZM47.6713 33.4934L37.5757 23.3978L39.7164 21.2571L49.812 31.3527L47.6713 33.4934ZM48.7071 16.7272C49.5312 15.9032 50.4197 15.4659 51.3726 15.4152C52.3209 15.36 53.29 15.8272 54.2797 16.817L59.3137 21.851L57.2076 23.9571L52.6984 19.4479C52.146 18.8955 51.6281 18.5802 51.1447 18.5019C50.6659 18.419 50.2125 18.5917 49.7844 19.0198C49.1399 19.6643 48.9189 20.3226 49.1215 20.9947C49.324 21.6669 49.8373 22.4149 50.6613 23.239L54.2936 26.8712L52.1874 28.9773L44.4673 21.2571L46.0762 19.6482L47.3468 20.3525L47.4642 20.2351C47.3629 19.8024 47.3514 19.3812 47.4296 18.9715C47.5125 18.5571 47.6644 18.1612 47.8854 17.7838C48.111 17.4017 48.3849 17.0495 48.7071 16.7272ZM23.1284 76.0289C24.4312 74.7261 25.6626 74.0563 26.8227 74.0195C27.9782 73.978 29.0463 74.4476 30.0268 75.4281C30.4688 75.8701 30.8255 76.3604 31.0971 76.899C31.3641 77.433 31.5023 78.0084 31.5115 78.6253C31.5253 79.2376 31.3734 79.8867 31.0557 80.5726C30.7335 81.2539 30.204 81.9629 29.4675 82.6995L28.5491 83.6179L32.1398 87.2087L29.9992 89.3493L19.9036 79.2537L23.1284 76.0289ZM24.7718 77.8934L23.7982 78.867L26.7951 81.8639L27.4995 81.1596C27.9 80.7591 28.1946 80.3586 28.3833 79.958C28.5721 79.5575 28.6342 79.1639 28.5698 78.7772C28.5053 78.3905 28.2959 78.0199 27.9414 77.6655C27.4442 77.1683 26.9378 76.9381 26.4222 76.9749C25.902 77.0072 25.3519 77.3133 24.7718 77.8934ZM35.1575 68.4607C35.2634 68.3548 35.3923 68.2397 35.5442 68.1154C35.6961 67.9819 35.825 67.8806 35.9309 67.8116L37.747 69.9453C37.6549 69.9913 37.5398 70.0742 37.4017 70.1939C37.2636 70.3044 37.1485 70.4057 37.0564 70.4977C36.7848 70.7693 36.5547 71.0686 36.3659 71.3954C36.1818 71.7177 36.0667 72.0583 36.0206 72.4174C35.97 72.7719 36.0114 73.1356 36.1449 73.5085C36.2784 73.8721 36.527 74.2358 36.8907 74.5995L40.8199 78.5286L38.7137 80.6348L30.9936 72.9146L32.5887 71.3195L34.1976 72.3069L34.3012 72.2034C34.1907 71.789 34.1401 71.3609 34.1493 70.919C34.1585 70.4678 34.2437 70.0328 34.4048 69.6138C34.5659 69.1857 34.8168 68.8013 35.1575 68.4607ZM48.2776 63.3231C48.9221 63.9676 49.4055 64.6259 49.7277 65.298C50.0546 65.9655 50.2249 66.6376 50.2387 67.3144C50.2525 67.9819 50.1144 68.6356 49.8244 69.2755C49.539 69.9108 49.1063 70.5184 48.5262 71.0985C47.983 71.6417 47.396 72.0537 46.7654 72.3346C46.1393 72.6108 45.4879 72.7466 44.8111 72.742C44.1344 72.7282 43.4554 72.5647 42.7741 72.2517C42.0973 71.934 41.4367 71.453 40.7922 70.8085C39.936 69.9522 39.3628 69.0752 39.0728 68.1775C38.7828 67.2798 38.7644 66.396 39.0176 65.5259C39.2708 64.6558 39.7864 63.8318 40.5644 63.0538C41.2871 62.331 42.0812 61.8453 42.9467 61.5967C43.8168 61.3436 44.7076 61.3551 45.6191 61.6313C46.5352 61.9029 47.4214 62.4668 48.2776 63.3231ZM42.9398 68.6609C43.4462 69.1673 43.9273 69.5379 44.383 69.7727C44.8388 70.0075 45.2715 70.0949 45.6812 70.0351C46.0909 69.9752 46.4845 69.7566 46.862 69.3791C47.2349 69.0062 47.449 68.6172 47.5042 68.2121C47.5641 67.8023 47.4743 67.3719 47.2349 66.9208C47.0001 66.465 46.6295 65.9839 46.1232 65.4775C45.6122 64.9666 45.1334 64.5983 44.6868 64.3727C44.2403 64.1379 43.8145 64.0527 43.4094 64.1172C43.0042 64.1816 42.6129 64.4026 42.2355 64.7801C41.6784 65.3371 41.4644 65.9333 41.5933 66.5686C41.7268 67.1993 42.1756 67.8967 42.9398 68.6609ZM59.5471 66.5962C58.4699 67.6734 57.4571 68.3087 56.5088 68.5021C55.5697 68.6954 54.7617 68.4538 54.085 67.777C53.6201 67.3121 53.3761 66.7781 53.353 66.175C53.33 65.5719 53.5326 64.9228 53.9607 64.2277C53.6523 64.352 53.3139 64.3911 52.9456 64.3451C52.5727 64.2944 52.2689 64.1517 52.0341 63.9169C51.7395 63.6223 51.5807 63.2932 51.5577 62.9295C51.53 62.5612 51.583 62.1216 51.7165 61.6106C51.1364 61.8407 50.5334 61.8822 49.9073 61.7349C49.2858 61.5829 48.7127 61.2446 48.1879 60.7198C47.6262 60.1581 47.2717 59.5597 47.1244 58.9244C46.9771 58.2799 47.0347 57.6193 47.2971 56.9425C47.5641 56.2612 48.0359 55.5822 48.7127 54.9055C48.8554 54.7628 49.0303 54.6062 49.2375 54.4359C49.4446 54.2656 49.638 54.1137 49.8175 53.9802C50.0017 53.8421 50.1283 53.7523 50.1973 53.7109L52.8904 51.0178L53.9607 52.0881L53.063 53.6073C53.3438 53.6671 53.6085 53.7661 53.8571 53.9042C54.1057 54.0423 54.3382 54.2195 54.5546 54.4359C55.3832 55.2646 55.74 56.2014 55.6249 57.2464C55.5098 58.2822 54.939 59.3134 53.9124 60.34C53.6546 60.5702 53.406 60.7819 53.1666 60.9753C53.1436 61.164 53.1505 61.332 53.1873 61.4794C53.2241 61.6267 53.2932 61.751 53.3945 61.8522C53.4958 61.9535 53.6224 61.9973 53.7743 61.9834C53.9262 61.9604 54.1057 61.8822 54.3129 61.7487C54.52 61.606 54.7525 61.4057 55.0103 61.1479L56.3223 59.8359C57.1694 58.9888 57.9957 58.5262 58.8014 58.4479C59.6116 58.365 60.3689 58.6758 61.0732 59.3801C61.9755 60.2824 62.2978 61.3597 62.04 62.6118C61.7868 63.8594 60.9558 65.1875 59.5471 66.5962ZM58.2627 65.1323C58.7645 64.6305 59.1466 64.1517 59.409 63.696C59.6806 63.2402 59.8257 62.8282 59.8441 62.4599C59.8671 62.0962 59.7589 61.7947 59.5195 61.5553C59.3262 61.362 59.1144 61.2653 58.8842 61.2653C58.6633 61.2653 58.4147 61.3574 58.1384 61.5415C57.8668 61.721 57.5538 61.9881 57.1993 62.3425L56.1083 63.4336C55.8505 63.6914 55.6594 63.9653 55.5351 64.2553C55.4154 64.5407 55.3694 64.8169 55.397 65.0839C55.4293 65.3556 55.5443 65.5903 55.7423 65.7883C56.0323 66.0783 56.3983 66.1681 56.8402 66.0576C57.2868 65.9425 57.761 65.6341 58.2627 65.1323ZM52.7454 58.9382C53.1413 58.5423 53.3093 58.1303 53.2495 57.7021C53.1896 57.274 52.9502 56.8505 52.5313 56.4316C52.0664 55.9666 51.6221 55.7157 51.1986 55.6789C50.7751 55.6328 50.3722 55.8009 49.9901 56.183C49.6034 56.5697 49.4308 56.9771 49.4722 57.4052C49.5091 57.8287 49.76 58.273 50.2249 58.7379C50.6439 59.1569 51.0697 59.3939 51.5024 59.4492C51.9398 59.4998 52.3541 59.3295 52.7454 58.9382ZM58.3318 45.2863C58.4377 45.1805 58.5666 45.0654 58.7185 44.9411C58.8704 44.8076 58.9993 44.7063 59.1052 44.6372L60.9213 46.771C60.8292 46.817 60.7141 46.8999 60.576 47.0196C60.4379 47.1301 60.3228 47.2313 60.2308 47.3234C59.9592 47.595 59.729 47.8943 59.5402 48.2211C59.3561 48.5434 59.241 48.884 59.195 49.2431C59.1443 49.5976 59.1858 49.9613 59.3193 50.3341C59.4528 50.6978 59.7014 51.0615 60.065 51.4252L63.9942 55.3543L61.888 57.4605L54.1679 49.7403L55.763 48.1451L57.372 49.1326L57.4755 49.029C57.365 48.6147 57.3144 48.1866 57.3236 47.7446C57.3328 47.2935 57.418 46.8585 57.5791 46.4395C57.7402 46.0114 57.9911 45.627 58.3318 45.2863ZM63.6282 39.9899C64.3417 39.2764 65.0944 38.7999 65.8862 38.5605C66.6734 38.3165 67.4676 38.3142 68.2686 38.5536C69.0696 38.793 69.8453 39.2879 70.5957 40.0383L71.6177 41.0603L66.6389 46.039C67.2558 46.6099 67.9003 46.8999 68.5724 46.9091C69.2445 46.9091 69.8775 46.6122 70.4714 46.0183C70.964 45.5257 71.3645 45.0239 71.6729 44.5129C71.9814 44.0019 72.2507 43.4288 72.4808 42.7935L74.1105 44.4232C73.9171 44.994 73.6547 45.5326 73.3233 46.039C72.9964 46.5408 72.5361 47.0886 71.9422 47.6825C71.1688 48.4559 70.3402 48.9991 69.4563 49.3121C68.577 49.6206 67.6747 49.6528 66.7494 49.4088C65.8287 49.1602 64.9241 48.5917 64.0356 47.7032C63.1333 46.8009 62.5348 45.8986 62.2402 44.9963C61.9456 44.0848 61.9226 43.2055 62.1712 42.3585C62.4152 41.5068 62.9008 40.7173 63.6282 39.9899ZM65.1405 41.4746C64.7307 41.8843 64.5213 42.3562 64.5121 42.8902C64.5075 43.4196 64.7653 43.9858 65.2855 44.5889L68.241 41.6334C67.9233 41.325 67.5873 41.104 67.2328 40.9705C66.8829 40.8324 66.5284 40.8002 66.1694 40.8738C65.8149 40.9429 65.4719 41.1431 65.1405 41.4746ZM79.7591 35.0043C80.2839 35.5291 80.6038 36.0976 80.7189 36.7099C80.834 37.313 80.7419 37.9529 80.4427 38.6296C80.1389 39.3017 79.6233 40.0015 78.8959 40.7288C78.3573 41.2674 77.8601 41.6956 77.4043 42.0132C76.9532 42.3262 76.4514 42.5979 75.899 42.828L74.1588 41.0879C74.7665 40.8577 75.3719 40.5654 75.9749 40.2109C76.578 39.8472 77.0614 39.4835 77.4251 39.1199C77.8348 38.7102 78.0673 38.358 78.1225 38.0634C78.1777 37.7595 78.1064 37.5086 77.9084 37.3107C77.7795 37.1818 77.6276 37.1035 77.4527 37.0759C77.2777 37.0391 77.0084 37.0736 76.6448 37.1795C76.2765 37.2807 75.7356 37.4764 75.022 37.7664C74.3361 38.0472 73.733 38.2406 73.2128 38.3465C72.6972 38.4477 72.223 38.4339 71.7903 38.305C71.3576 38.1669 70.9225 37.8792 70.4852 37.4419C69.7716 36.7283 69.5115 35.9158 69.7049 35.0043C69.8982 34.0836 70.4599 33.1583 71.3898 32.2283C71.8686 31.7496 72.3727 31.3422 72.9021 31.0061C73.4361 30.6654 74.0391 30.3708 74.7113 30.1222L75.5951 32.2767C75.0473 32.493 74.5501 32.7186 74.1036 32.9534C73.6617 33.1836 73.2657 33.4736 72.9159 33.8235C72.6074 34.1319 72.4164 34.4058 72.3427 34.6452C72.2691 34.8846 72.3174 35.0895 72.4877 35.2598C72.612 35.3841 72.7617 35.4554 72.9366 35.4738C73.1161 35.4877 73.3808 35.4393 73.7307 35.3288C74.0806 35.2091 74.5732 35.0158 75.2084 34.7488C75.8253 34.491 76.3939 34.2999 76.9141 34.1756C77.4297 34.0467 77.9199 34.0398 78.3849 34.1549C78.8453 34.2654 79.3033 34.5485 79.7591 35.0043ZM86.7887 27.9747C87.3135 28.4995 87.6335 29.068 87.7485 29.6803C87.8636 30.2833 87.7716 30.9232 87.4723 31.6C87.1685 32.2721 86.6529 32.9718 85.9255 33.6992C85.3869 34.2378 84.8897 34.6659 84.434 34.9836C83.9828 35.2966 83.481 35.5682 82.9286 35.7984L81.1885 34.0583C81.7961 33.8281 82.4015 33.5358 83.0046 33.1813C83.6076 32.8176 84.091 32.4539 84.4547 32.0902C84.8644 31.6805 85.0969 31.3283 85.1521 31.0337C85.2074 30.7299 85.136 30.479 84.9381 30.281C84.8092 30.1521 84.6573 30.0739 84.4823 30.0463C84.3074 30.0094 84.0381 30.044 83.6744 30.1498C83.3061 30.2511 82.7652 30.4468 82.0516 30.7368C81.3657 31.0176 80.7626 31.211 80.2424 31.3168C79.7268 31.4181 79.2527 31.4043 78.8199 31.2754C78.3872 31.1373 77.9522 30.8496 77.5148 30.4122C76.8013 29.6987 76.5412 28.8862 76.7345 27.9747C76.9279 27.0539 77.4895 26.1286 78.4194 25.1987C78.8982 24.7199 79.4023 24.3125 79.9317 23.9765C80.4657 23.6358 81.0688 23.3412 81.7409 23.0926L82.6248 25.247C82.077 25.4634 81.5798 25.689 81.1332 25.9238C80.6913 26.1539 80.2954 26.444 79.9455 26.7938C79.6371 27.1023 79.446 27.3762 79.3724 27.6156C79.2987 27.855 79.347 28.0598 79.5174 28.2301C79.6417 28.3544 79.7913 28.4258 79.9662 28.4442C80.1458 28.458 80.4105 28.4097 80.7603 28.2992C81.1102 28.1795 81.6028 27.9862 82.2381 27.7192C82.855 27.4614 83.4235 27.2703 83.9437 27.146C84.4593 27.0171 84.9496 27.0102 85.4145 27.1253C85.8749 27.2358 86.3329 27.5189 86.7887 27.9747Z" fill="#1D1D1D"/>
</svg>
